PathFileType	4	(X/Y/Z)	C:\Users\WrightLab\Desktop\Jo\P5V18.trc
DataRate	CameraRate	NumFrames	NumMarkers	Units	OrigDataRate	OrigDataStartFrame	OrigNumFrames
100.00	100.00	       17	19	mm	100.00	781	       892
Frame#	Time	Headset_Front			Headset_Back			Headset_Left			Headset_Right			Left_Shoulder			Right_Shoulder			Sternum			C7			Left Elbow			Right Elbow			Left Wrist			Right Wrist			Left ASIS			Right ASIS			S2			Left Knee			Right Knee			Left Ankle			Right Ankle			
		X1	Y1	Z1	X2	Y2	Z2	X3	Y3	Z3	X4	Y4	Z4	X5	Y5	Z5	X6	Y6	Z6	X7	Y7	Z7	X8	Y8	Z8	X9	Y9	Z9	X10	Y10	Z10	X11	Y11	Z11	X12	Y12	Z12	X13	Y13	Z13	X14	Y14	Z14	X15	Y15	Z15	X16	Y16	Z16	X17	Y17	Z17	X18	Y18	Z18	X19	Y19	Z19	

781	7.800	6.17537	1359.86719	-448.62360	130.68169	1740.08948	-847.88562							-79.13108	1506.50525	-872.00092	255.53215	1451.18408	-1012.03387	97.64024	1305.29626	-882.37726	16.80008	1571.85852	-969.23053	96.32452	1488.35559	-653.38062	386.07617	1201.73254	-1084.08582	-209.60719	1370.79785	-516.93201	240.75546	1021.69940	-1174.79346	20.44748	915.32953	-765.74976	196.81512	934.19958	-982.17712	315.45102	954.81537	-707.12848	49.49550	476.93823	-775.97778	351.99139	481.47046	-884.64984	60.96764	70.84541	-858.49713	545.17627	157.83543	-685.50049	
782	7.810	2.29970	1354.96667	-451.49542	124.52859	1740.25330	-849.23767							-86.70862	1507.55591	-870.41473	248.84149	1451.42346	-1015.41394	90.41003	1305.71143	-886.09784	7.60504	1572.88940	-969.66077				376.66223	1200.47998	-1088.86536	-214.01297	1367.04285	-516.88739	229.62782	1021.01385	-1178.52441	11.15933	914.46082	-771.81134	186.55298	934.34296	-987.08173	308.96368	951.51849	-714.92194	42.11189	476.03052	-783.24811	343.28543	480.25238	-889.71320	60.18275	70.98721	-858.78674	540.46637	162.54926	-692.14771	
783	7.820	-1.38903	1351.02905	-454.07083	118.16763	1741.01880	-851.76489							-94.10940	1508.80432	-868.79803	242.41420	1451.81970	-1019.71057	83.20833	1306.50403	-889.98553	-1.51421	1574.67468	-968.94250				367.13525	1199.96436	-1093.72974	-218.38458	1363.96729	-516.94299	218.62260	1021.26068	-1182.73254	2.55262	913.66394	-777.80774	175.87363	935.41486	-991.49603	301.93207	948.89764	-724.05298	33.74553	476.37790	-789.12476	334.18384	482.36255	-899.83911	59.51027	71.94183	-858.93195	533.44043	168.05917	-699.77936	
784	7.830	-5.14322	1347.66113	-461.23236	112.26819	1741.86877	-853.09259							-101.36051	1510.67969	-867.40082	235.40742	1452.98425	-1023.96979	76.45289	1307.94409	-893.12885	-10.54261	1576.52917	-968.63452				357.19415	1200.04553	-1098.53528	-222.44756	1360.68921	-516.51282				-5.43014	913.68280	-782.99329	166.03479	936.50989	-996.41241	294.10916	947.88959	-731.37018	24.07788	478.46112	-793.88947	324.48666	483.91376	-908.89343	56.90430	72.24220	-858.07343	525.54688	174.83362	-709.48383	
785	7.840	-7.29139	1343.87378	-460.43707	106.66003	1742.88123	-855.01752							-108.10519	1512.56836	-865.40222	228.00427	1454.23291	-1028.23877	69.17901	1309.12952	-896.97369	-19.11464	1578.23523	-968.37000				347.81845	1200.32117	-1103.16724	-226.56490	1357.46533	-515.75848	195.84692	1022.92969	-1190.02307	-13.70286	914.99683	-788.75586	155.45071	938.56671	-1001.43890	286.39236	948.12524	-738.90509	14.28868	481.22330	-796.59412	313.39035	485.07693	-921.21185	55.79050	72.54749	-857.36230	516.33954	181.23647	-720.86212	
786	7.850	-10.18513	1341.00537	-463.26727	101.95978	1743.16968	-856.15375							-114.63163	1514.49548	-863.35999	220.44025	1456.27295	-1032.51062	61.46205	1310.07251	-900.64960	-26.92882	1579.55176	-967.12231				338.11176	1200.74707	-1107.72131	-230.13014	1353.96033	-516.30017	184.64014	1023.47107	-1193.54016	-20.68531	915.60107	-793.22961	145.55882	939.80591	-1006.12622	278.97070	948.05420	-744.97461	4.45385	483.83990	-799.47467	300.21915	485.51987	-936.99493	54.69398	72.74862	-858.32776	507.51929	188.93755	-733.02319	
787	7.860	-12.81728	1338.49902	-466.20572	97.63367	1743.17578	-857.61328							-121.03296	1516.51733	-861.28369	211.90512	1457.83044	-1037.03235	53.99681	1311.56311	-903.69934	-34.53565	1580.66748	-966.62885	64.31424	1482.28552	-666.27924	328.63272	1201.49207	-1112.74866	-233.32887	1350.69678	-516.23431	173.77550	1025.39612	-1196.94434	-27.60111	916.37622	-797.40887	135.61629	941.82751	-1011.80701	271.53302	947.54529	-751.40533	-6.11619	485.61432	-802.48279	284.59415	483.89804	-953.44128	55.50986	72.86833	-857.11737	495.87622	196.44032	-745.37189	
788	7.870	-14.97958	1336.11780	-469.66806	93.58482	1743.31909	-858.86273							-127.39857	1518.65796	-859.18903	203.30008	1459.66345	-1040.92383	46.47852	1312.23730	-907.33643	-42.20977	1581.81653	-966.78705				319.57861	1202.78943	-1117.84033	-236.67909	1347.94666	-515.98444	163.01042	1025.93054	-1198.91711	-34.42694	917.71667	-802.35413	125.75449	943.74646	-1016.84375	264.78104	947.83704	-757.48346	-15.66318	486.79657	-804.37262	267.83719	481.27646	-970.60132	54.78483	72.43201	-857.57672	484.58749	204.73448	-758.35309	
789	7.880	-16.95959	1334.06555	-472.15659	89.37397	1743.69226	-860.62494							-133.66902	1521.24329	-857.66547	194.82693	1461.13892	-1045.06604	39.47140	1312.96143	-910.49194	-49.86357	1584.01196	-966.19818				310.92725	1203.65906	-1122.90942	-240.30975	1345.08533	-516.15369	152.16367	1027.51025	-1202.07202	-40.93859	918.43811	-806.32111	115.94838	945.73401	-1021.71973	258.05780	948.48737	-763.56226	-24.83555	487.91129	-805.92255	250.88673	477.76245	-987.77509	55.28121	72.19796	-857.04028	473.14951	213.58250	-771.50146	
790	7.890	-19.29148	1332.72021	-475.11307	85.01328	1744.37183	-863.16046							-139.77042	1523.73389	-855.29285	186.67677	1462.50256	-1049.16626	32.65678	1314.31909	-914.28967	-57.78622	1586.48572	-965.03772				302.20224	1204.87207	-1128.03003	-242.99142	1342.75842	-516.19177	141.14687	1028.77698	-1205.27600	-46.80856	918.83691	-809.43182	106.42437	948.22076	-1026.90051	251.48859	948.28705	-770.17902	-33.72968	488.42532	-807.05768	233.30943	474.33783	-1005.68066	55.36553	72.63120	-857.12738	460.19794	221.61945	-784.78461	
791	7.900	-20.98774	1331.42712	-476.91248	80.66154	1745.08899	-864.83936							-145.58031	1526.64587	-852.95447	178.68500	1463.82007	-1053.51404	25.94268	1315.59900	-918.01587	-65.75721	1589.30664	-964.67780				293.32053	1206.31226	-1134.69055	-246.31717	1340.46460	-516.13629	130.10640	1030.25305	-1208.45386	-53.88609	919.54553	-813.08911	101.36481	948.34601	-1032.98376	245.02141	949.27271	-777.43402	-41.21648	488.60568	-809.05908	215.05463	470.12045	-1021.98401	55.36071	72.61049	-857.12311	447.60306	229.79080	-798.63776	
792	7.910	-22.35099	1330.35608	-479.29443	76.46143	1746.02319	-865.77179							-151.27065	1529.01245	-850.76648	170.79768	1465.51294	-1057.75281	19.48009	1317.29846	-921.04254	-73.15552	1592.04175	-963.20129				283.90274	1207.88684	-1140.35486	-248.71899	1338.42139	-515.07190	119.16246	1032.08130	-1211.36194	-59.48516	920.32410	-815.91364	93.40072	949.91833	-1038.77588	239.72418	950.11041	-783.05157	-48.90531	489.31662	-810.10321	194.69014	467.93842	-1040.40002	55.56849	72.67412	-856.80151	434.39438	237.73534	-811.42834	
793	7.920	-22.81847	1328.32617	-481.14005										-156.68234	1531.50940	-848.86896	163.01579	1467.59546	-1062.46973	13.35835	1319.15344	-923.56274	-80.50346	1594.64014	-962.86328				274.26288	1209.34863	-1146.56909	-250.39314	1335.81775	-513.78674	108.11325	1033.39209	-1213.43982	-65.43964	922.30688	-819.31665	83.98064	951.78058	-1043.84656	233.54018	951.60632	-788.63129	-54.79440	490.49619	-810.47729	172.10519	466.57709	-1055.76624	54.78917	73.26606	-856.53015	420.37750	244.18944	-825.27039	
794	7.930	-24.21517	1328.21777	-483.80786										-161.74870	1533.90125	-846.67303	155.10501	1470.01770	-1067.21875	7.08453	1321.05908	-926.52832	-87.35917	1596.30847	-961.84113				264.83481	1210.32019	-1150.82471	-252.70100	1333.88086	-514.03485	96.83970	1035.13879	-1216.47644	-71.77120	923.79736	-821.43945	76.46631	953.69141	-1049.27808	228.65741	953.99304	-793.76404	-59.94518	491.22748	-810.88525	147.21365	466.59875	-1070.58862	54.89392	73.36366	-856.37927	407.80518	251.11517	-838.98383	
795	7.940	-26.54902	1328.63159	-488.47235										-166.57147	1535.99646	-844.42383	147.21608	1471.82104	-1071.27014	0.78606	1322.70422	-929.36658	-94.51332	1598.09033	-962.01666				254.18279	1212.88733	-1158.20422	-253.86954	1332.29260	-513.81628	85.68269	1037.23096	-1219.10425	-77.69858	924.52649	-822.90790	68.88123	955.72736	-1054.79980	222.55202	955.22192	-798.79871	-65.75835	492.15579	-811.69824	121.43127	468.31607	-1084.53821	54.80315	73.29879	-856.53418	393.89862	256.34464	-852.06384	
796	7.950	-25.77206	1327.45496	-488.88998										-171.16830	1538.04272	-841.85590	139.11551	1474.41357	-1076.33447	-5.41964	1324.64722	-932.22510	-101.21967	1600.27441	-960.12665				243.62833	1214.39087	-1164.05042	-255.25082	1330.72009	-512.88715	74.20785	1038.57043	-1221.45593	-83.61638	926.82953	-823.56580	60.09947	958.06049	-1059.88391	218.50713	957.36682	-804.40991	-70.66327	493.78281	-809.85010	96.49887	472.11652	-1096.91907	55.12825	73.38303	-856.51605	379.12805	261.27267	-865.51257	
797	7.960	-27.64133	1328.37598	-494.00885	203.48183	1511.29309	-858.49139							-175.61501	1540.14783	-839.45685	130.69958	1476.83850	-1081.15625	-11.82916	1326.67871	-935.46417	-108.55009	1602.59448	-959.67590				232.99466	1216.19373	-1170.33667	-255.76839	1329.69653	-511.12610	62.88981	1040.92761	-1224.39294	-89.40685	928.95697	-824.32361	51.94218	960.92981	-1065.36072	213.30061	959.08838	-809.61359	-78.03078	495.02090	-809.19788	72.80866	477.85342	-1107.66357	54.59291	73.70869	-856.22198	363.83228	264.52740	-880.31812	
